<?xml version="1.0" standalone="no"?>
<!DOCTYPE svg PUBLIC "-//W3C//DTD SVG 20010904//EN"
 "http://www.w3.org/TR/2001/REC-SVG-20010904/DTD/svg10.dtd">
<svg version="1.0" xmlns="http://www.w3.org/2000/svg"
 width="130.000000pt" height="130.000000pt" viewBox="0 0 130.000000 130.000000"
 preserveAspectRatio="xMidYMid meet">
<metadata>
Created by potrace 1.11, written by Peter Selinger 2001-2013
</metadata>
<g transform="translate(0.000000,130.000000) scale(0.100000,-0.100000)"
fill="#000000" stroke="none">
<path d="M565 915 c-38 -36 -73 -65 -77 -65 -5 0 -8 18 -8 40 l0 40 -50 0 -50
0 0 -85 c0 -78 -2 -87 -25 -107 -23 -20 -34 -48 -19 -48 6 0 63 48 273 227
l38 32 152 -131 c110 -94 155 -128 163 -120 8 8 1 19 -23 39 -18 15 -90 76
-159 135 -69 59 -129 107 -135 107 -5 0 -41 -29 -80 -64z m-105 -53 c0 -25 -6
-44 -17 -54 -40 -34 -43 -32 -43 31 l0 61 30 0 c28 0 30 -2 30 -38z"/>
<path d="M579 842 c-36 -32 -95 -82 -132 -112 l-67 -55 0 -192 0 -193 93 0 92
0 0 117 0 118 80 0 80 0 3 -117 3 -118 94 0 95 0 0 188 0 189 -117 99 c-64 54
-127 106 -138 116 -20 16 -23 14 -86 -40z m209 -102 l102 -84 0 -168 0 -168
-70 0 -70 0 0 115 0 115 -105 0 -105 0 0 -115 0 -115 -70 0 -70 0 0 168 1 167
122 101 c117 98 122 101 142 85 12 -9 67 -54 123 -101z"/>
</g>
</svg>
